<?xml version="1.0" encoding="utf-8"?>
<svg height="24" viewBox="0 -960 720 721.348" width="24" xmlns="http://www.w3.org/2000/svg">
  <defs>
    <view id="view-1" viewBox="800.899 -527.865 16.18 1.348">
      <title>View 1</title>
    </view>
  </defs>
  <path d="M 664 -240 L 412 -492 C 392 -476 369 -463.333 343 -454 C 317 -444.667 289.333 -440 260 -440 C 187.333 -440 125.833 -465.167 75.5 -515.5 C 25.167 -565.833 0 -627.333 0 -700 C 0 -772.667 25.167 -834.167 75.5 -884.5 C 125.833 -934.833 187.333 -960 260 -960 C 332.667 -960 394.167 -934.833 444.5 -884.5 C 494.833 -834.167 520 -772.667 520 -700 C 520 -670.667 515.333 -643 506 -617 C 496.667 -591 484 -568 468 -548 L 720 -296 L 664 -240 Z M 260 -520 C 310 -520 352.5 -537.5 387.5 -572.5 C 422.5 -607.5 440 -650 440 -700 C 440 -750 422.5 -792.5 387.5 -827.5 C 352.5 -862.5 310 -880 260 -880 C 210 -880 167.5 -862.5 132.5 -827.5 C 97.5 -792.5 80 -750 80 -700 C 80 -650 97.5 -607.5 132.5 -572.5 C 167.5 -537.5 210 -520 260 -520 Z"/>
</svg>